<?xml version="1.0" standalone="no"?>
<!DOCTYPE svg PUBLIC "-//W3C//DTD SVG 1.1//EN" "http://www.w3.org/Graphics/SVG/1.1/DTD/svg11.dtd">
<svg width="108" height="108" version="1.1" xmlns="http://www.w3.org/2000/svg">
	<desc>http://www.tcpdf.org</desc>
	<g id="elements" fill="black" stroke="none">
		<rect x="0" y="0" width="6" height="6" />
		<rect x="12" y="0" width="6" height="6" />
		<rect x="24" y="0" width="6" height="6" />
		<rect x="36" y="0" width="6" height="6" />
		<rect x="48" y="0" width="6" height="6" />
		<rect x="60" y="0" width="6" height="6" />
		<rect x="72" y="0" width="6" height="6" />
		<rect x="84" y="0" width="6" height="6" />
		<rect x="96" y="0" width="6" height="6" />
		<rect x="0" y="6" width="6" height="6" />
		<rect x="6" y="6" width="6" height="6" />
		<rect x="24" y="6" width="6" height="6" />
		<rect x="36" y="6" width="6" height="6" />
		<rect x="42" y="6" width="6" height="6" />
		<rect x="54" y="6" width="6" height="6" />
		<rect x="60" y="6" width="6" height="6" />
		<rect x="66" y="6" width="6" height="6" />
		<rect x="78" y="6" width="6" height="6" />
		<rect x="84" y="6" width="6" height="6" />
		<rect x="90" y="6" width="6" height="6" />
		<rect x="96" y="6" width="6" height="6" />
		<rect x="102" y="6" width="6" height="6" />
		<rect x="0" y="12" width="6" height="6" />
		<rect x="18" y="12" width="6" height="6" />
		<rect x="30" y="12" width="6" height="6" />
		<rect x="36" y="12" width="6" height="6" />
		<rect x="48" y="12" width="6" height="6" />
		<rect x="60" y="12" width="6" height="6" />
		<rect x="66" y="12" width="6" height="6" />
		<rect x="78" y="12" width="6" height="6" />
		<rect x="90" y="12" width="6" height="6" />
		<rect x="0" y="18" width="6" height="6" />
		<rect x="24" y="18" width="6" height="6" />
		<rect x="30" y="18" width="6" height="6" />
		<rect x="36" y="18" width="6" height="6" />
		<rect x="42" y="18" width="6" height="6" />
		<rect x="48" y="18" width="6" height="6" />
		<rect x="54" y="18" width="6" height="6" />
		<rect x="60" y="18" width="6" height="6" />
		<rect x="78" y="18" width="6" height="6" />
		<rect x="90" y="18" width="6" height="6" />
		<rect x="96" y="18" width="6" height="6" />
		<rect x="102" y="18" width="6" height="6" />
		<rect x="0" y="24" width="6" height="6" />
		<rect x="6" y="24" width="6" height="6" />
		<rect x="48" y="24" width="6" height="6" />
		<rect x="60" y="24" width="6" height="6" />
		<rect x="66" y="24" width="6" height="6" />
		<rect x="72" y="24" width="6" height="6" />
		<rect x="84" y="24" width="6" height="6" />
		<rect x="90" y="24" width="6" height="6" />
		<rect x="0" y="30" width="6" height="6" />
		<rect x="6" y="30" width="6" height="6" />
		<rect x="24" y="30" width="6" height="6" />
		<rect x="84" y="30" width="6" height="6" />
		<rect x="90" y="30" width="6" height="6" />
		<rect x="96" y="30" width="6" height="6" />
		<rect x="102" y="30" width="6" height="6" />
		<rect x="0" y="36" width="6" height="6" />
		<rect x="6" y="36" width="6" height="6" />
		<rect x="30" y="36" width="6" height="6" />
		<rect x="36" y="36" width="6" height="6" />
		<rect x="54" y="36" width="6" height="6" />
		<rect x="84" y="36" width="6" height="6" />
		<rect x="0" y="42" width="6" height="6" />
		<rect x="6" y="42" width="6" height="6" />
		<rect x="18" y="42" width="6" height="6" />
		<rect x="24" y="42" width="6" height="6" />
		<rect x="30" y="42" width="6" height="6" />
		<rect x="36" y="42" width="6" height="6" />
		<rect x="48" y="42" width="6" height="6" />
		<rect x="60" y="42" width="6" height="6" />
		<rect x="72" y="42" width="6" height="6" />
		<rect x="78" y="42" width="6" height="6" />
		<rect x="96" y="42" width="6" height="6" />
		<rect x="102" y="42" width="6" height="6" />
		<rect x="0" y="48" width="6" height="6" />
		<rect x="6" y="48" width="6" height="6" />
		<rect x="18" y="48" width="6" height="6" />
		<rect x="36" y="48" width="6" height="6" />
		<rect x="66" y="48" width="6" height="6" />
		<rect x="72" y="48" width="6" height="6" />
		<rect x="0" y="54" width="6" height="6" />
		<rect x="12" y="54" width="6" height="6" />
		<rect x="30" y="54" width="6" height="6" />
		<rect x="42" y="54" width="6" height="6" />
		<rect x="72" y="54" width="6" height="6" />
		<rect x="78" y="54" width="6" height="6" />
		<rect x="96" y="54" width="6" height="6" />
		<rect x="102" y="54" width="6" height="6" />
		<rect x="0" y="60" width="6" height="6" />
		<rect x="24" y="60" width="6" height="6" />
		<rect x="36" y="60" width="6" height="6" />
		<rect x="42" y="60" width="6" height="6" />
		<rect x="54" y="60" width="6" height="6" />
		<rect x="96" y="60" width="6" height="6" />
		<rect x="0" y="66" width="6" height="6" />
		<rect x="6" y="66" width="6" height="6" />
		<rect x="18" y="66" width="6" height="6" />
		<rect x="30" y="66" width="6" height="6" />
		<rect x="48" y="66" width="6" height="6" />
		<rect x="60" y="66" width="6" height="6" />
		<rect x="78" y="66" width="6" height="6" />
		<rect x="96" y="66" width="6" height="6" />
		<rect x="102" y="66" width="6" height="6" />
		<rect x="0" y="72" width="6" height="6" />
		<rect x="6" y="72" width="6" height="6" />
		<rect x="18" y="72" width="6" height="6" />
		<rect x="30" y="72" width="6" height="6" />
		<rect x="42" y="72" width="6" height="6" />
		<rect x="48" y="72" width="6" height="6" />
		<rect x="54" y="72" width="6" height="6" />
		<rect x="60" y="72" width="6" height="6" />
		<rect x="66" y="72" width="6" height="6" />
		<rect x="72" y="72" width="6" height="6" />
		<rect x="78" y="72" width="6" height="6" />
		<rect x="84" y="72" width="6" height="6" />
		<rect x="96" y="72" width="6" height="6" />
		<rect x="0" y="78" width="6" height="6" />
		<rect x="6" y="78" width="6" height="6" />
		<rect x="12" y="78" width="6" height="6" />
		<rect x="24" y="78" width="6" height="6" />
		<rect x="48" y="78" width="6" height="6" />
		<rect x="60" y="78" width="6" height="6" />
		<rect x="66" y="78" width="6" height="6" />
		<rect x="72" y="78" width="6" height="6" />
		<rect x="90" y="78" width="6" height="6" />
		<rect x="102" y="78" width="6" height="6" />
		<rect x="0" y="84" width="6" height="6" />
		<rect x="6" y="84" width="6" height="6" />
		<rect x="12" y="84" width="6" height="6" />
		<rect x="30" y="84" width="6" height="6" />
		<rect x="42" y="84" width="6" height="6" />
		<rect x="48" y="84" width="6" height="6" />
		<rect x="54" y="84" width="6" height="6" />
		<rect x="60" y="84" width="6" height="6" />
		<rect x="66" y="84" width="6" height="6" />
		<rect x="96" y="84" width="6" height="6" />
		<rect x="0" y="90" width="6" height="6" />
		<rect x="6" y="90" width="6" height="6" />
		<rect x="18" y="90" width="6" height="6" />
		<rect x="30" y="90" width="6" height="6" />
		<rect x="36" y="90" width="6" height="6" />
		<rect x="42" y="90" width="6" height="6" />
		<rect x="48" y="90" width="6" height="6" />
		<rect x="54" y="90" width="6" height="6" />
		<rect x="72" y="90" width="6" height="6" />
		<rect x="96" y="90" width="6" height="6" />
		<rect x="102" y="90" width="6" height="6" />
		<rect x="0" y="96" width="6" height="6" />
		<rect x="6" y="96" width="6" height="6" />
		<rect x="12" y="96" width="6" height="6" />
		<rect x="30" y="96" width="6" height="6" />
		<rect x="36" y="96" width="6" height="6" />
		<rect x="48" y="96" width="6" height="6" />
		<rect x="60" y="96" width="6" height="6" />
		<rect x="66" y="96" width="6" height="6" />
		<rect x="78" y="96" width="6" height="6" />
		<rect x="0" y="102" width="6" height="6" />
		<rect x="6" y="102" width="6" height="6" />
		<rect x="12" y="102" width="6" height="6" />
		<rect x="18" y="102" width="6" height="6" />
		<rect x="24" y="102" width="6" height="6" />
		<rect x="30" y="102" width="6" height="6" />
		<rect x="36" y="102" width="6" height="6" />
		<rect x="42" y="102" width="6" height="6" />
		<rect x="48" y="102" width="6" height="6" />
		<rect x="54" y="102" width="6" height="6" />
		<rect x="60" y="102" width="6" height="6" />
		<rect x="66" y="102" width="6" height="6" />
		<rect x="72" y="102" width="6" height="6" />
		<rect x="78" y="102" width="6" height="6" />
		<rect x="84" y="102" width="6" height="6" />
		<rect x="90" y="102" width="6" height="6" />
		<rect x="96" y="102" width="6" height="6" />
		<rect x="102" y="102" width="6" height="6" />
	</g>
</svg>
