<?xml version="1.0" standalone="no"?>
<!DOCTYPE svg PUBLIC "-//W3C//DTD SVG 1.1//EN" "http://www.w3.org/Graphics/SVG/1.1/DTD/svg11.dtd">
<svg width="510" height="40" version="1.1" xmlns="http://www.w3.org/2000/svg">
	<desc>http://www.tcpdf.org</desc>
	<g id="bars" fill="black" stroke="none">
		<rect x="0" y="0" width="4" height="40" />
		<rect x="6" y="0" width="2" height="40" />
		<rect x="12" y="0" width="2" height="40" />
		<rect x="22" y="0" width="2" height="40" />
		<rect x="28" y="0" width="4" height="40" />
		<rect x="40" y="0" width="2" height="40" />
		<rect x="44" y="0" width="2" height="40" />
		<rect x="50" y="0" width="8" height="40" />
		<rect x="60" y="0" width="2" height="40" />
		<rect x="66" y="0" width="2" height="40" />
		<rect x="72" y="0" width="8" height="40" />
		<rect x="82" y="0" width="2" height="40" />
		<rect x="88" y="0" width="2" height="40" />
		<rect x="92" y="0" width="2" height="40" />
		<rect x="98" y="0" width="8" height="40" />
		<rect x="110" y="0" width="6" height="40" />
		<rect x="120" y="0" width="2" height="40" />
		<rect x="126" y="0" width="4" height="40" />
		<rect x="132" y="0" width="2" height="40" />
		<rect x="136" y="0" width="6" height="40" />
		<rect x="146" y="0" width="4" height="40" />
		<rect x="154" y="0" width="2" height="40" />
		<rect x="158" y="0" width="6" height="40" />
		<rect x="168" y="0" width="4" height="40" />
		<rect x="176" y="0" width="8" height="40" />
		<rect x="188" y="0" width="2" height="40" />
		<rect x="192" y="0" width="2" height="40" />
		<rect x="198" y="0" width="8" height="40" />
		<rect x="210" y="0" width="2" height="40" />
		<rect x="214" y="0" width="2" height="40" />
		<rect x="220" y="0" width="8" height="40" />
		<rect x="232" y="0" width="2" height="40" />
		<rect x="236" y="0" width="2" height="40" />
		<rect x="242" y="0" width="2" height="40" />
		<rect x="248" y="0" width="4" height="40" />
		<rect x="256" y="0" width="6" height="40" />
		<rect x="264" y="0" width="2" height="40" />
		<rect x="270" y="0" width="8" height="40" />
		<rect x="280" y="0" width="2" height="40" />
		<rect x="286" y="0" width="2" height="40" />
		<rect x="296" y="0" width="2" height="40" />
		<rect x="300" y="0" width="4" height="40" />
		<rect x="308" y="0" width="2" height="40" />
		<rect x="312" y="0" width="2" height="40" />
		<rect x="318" y="0" width="8" height="40" />
		<rect x="330" y="0" width="2" height="40" />
		<rect x="340" y="0" width="2" height="40" />
		<rect x="346" y="0" width="4" height="40" />
		<rect x="352" y="0" width="2" height="40" />
		<rect x="356" y="0" width="4" height="40" />
		<rect x="368" y="0" width="2" height="40" />
		<rect x="374" y="0" width="2" height="40" />
		<rect x="380" y="0" width="4" height="40" />
		<rect x="388" y="0" width="6" height="40" />
		<rect x="396" y="0" width="2" height="40" />
		<rect x="404" y="0" width="8" height="40" />
		<rect x="414" y="0" width="2" height="40" />
		<rect x="418" y="0" width="2" height="40" />
		<rect x="424" y="0" width="2" height="40" />
		<rect x="430" y="0" width="8" height="40" />
		<rect x="440" y="0" width="2" height="40" />
		<rect x="446" y="0" width="4" height="40" />
		<rect x="452" y="0" width="2" height="40" />
		<rect x="462" y="0" width="6" height="40" />
		<rect x="472" y="0" width="4" height="40" />
		<rect x="478" y="0" width="2" height="40" />
		<rect x="484" y="0" width="4" height="40" />
		<rect x="494" y="0" width="6" height="40" />
		<rect x="502" y="0" width="2" height="40" />
		<rect x="506" y="0" width="4" height="40" />
		<rect x="510" y="0" width="0" height="40" />
		<rect x="510" y="0" width="0" height="40" />
	</g>
</svg>
